<?xml version="1.0" encoding="UTF-8" standalone="no"?>
<!-- Created with Inkscape (http://www.inkscape.org/) -->

<svg
   xmlns:dc="http://purl.org/dc/elements/1.1/"
   xmlns:cc="http://creativecommons.org/ns#"
   xmlns:rdf="http://www.w3.org/1999/02/22-rdf-syntax-ns#"
   xmlns:svg="http://www.w3.org/2000/svg"
   xmlns="http://www.w3.org/2000/svg"
   xmlns:sodipodi="http://sodipodi.sourceforge.net/DTD/sodipodi-0.dtd"
   xmlns:inkscape="http://www.inkscape.org/namespaces/inkscape"
   width="500"
   height="500"
   id="svg2"
   version="1.1"
   inkscape:version="0.48.3.1 r9886"
   sodipodi:docname="logo.svg"
   inkscape:export-filename="/home/nico/src/OxygenGuide-Android/docs/marketing/logo512.png"
   inkscape:export-xdpi="92.160004"
   inkscape:export-ydpi="92.160004">
  <defs
     id="defs4">
    <linearGradient
       id="path3270-5_3_"
       gradientUnits="userSpaceOnUse"
       x1="166.1897"
       y1="189.96899"
       x2="334.57449"
       y2="189.96899"
       gradientTransform="matrix(-0.9601,0.2795,0.2795,0.9601,1261.4701,496.40387)">
      <stop
         offset="0"
         style="stop-color:#64C08A"
         id="stop3204" />
      <stop
         offset="0.5"
         style="stop-color:#00A550"
         id="stop3206" />
      <stop
         offset="1"
         style="stop-color:#00914C"
         id="stop3208" />
    </linearGradient>
    <linearGradient
       id="path3361_1_"
       gradientUnits="userSpaceOnUse"
       x1="314.6438"
       y1="-765.64917"
       x2="448.49911"
       y2="-765.64917"
       gradientTransform="matrix(0.9112,-0.412,-0.412,-0.9112,-282.72801,486.18695)">
      <stop
         offset="0"
         style="stop-color:#00914C"
         id="stop3195" />
      <stop
         offset="0.5"
         style="stop-color:#00A550"
         id="stop3197" />
      <stop
         offset="1"
         style="stop-color:#64C08A"
         id="stop3199" />
    </linearGradient>
    <linearGradient
       id="path3359_1_"
       gradientUnits="userSpaceOnUse"
       x1="363.3064"
       y1="247.5139"
       x2="453.616"
       y2="247.5139"
       gradientTransform="matrix(0.9112,-0.412,0.412,0.9112,-96.703814,935.50675)">
      <stop
         offset="0"
         style="stop-color:#990100"
         id="stop3187" />
      <stop
         offset="0.5"
         style="stop-color:#990100"
         id="stop3189" />
      <stop
         offset="1"
         style="stop-color:#990100"
         id="stop3191" />
    </linearGradient>
    <linearGradient
       id="path3357_1_"
       gradientUnits="userSpaceOnUse"
       x1="290.37769"
       y1="-796.35907"
       x2="449.86749"
       y2="-796.35907"
       gradientTransform="matrix(0.9112,-0.412,-0.412,-0.9112,-282.72801,486.18695)">
      <stop
         offset="0"
         style="stop-color:#64C08A"
         id="stop3179" />
      <stop
         offset="0.5"
         style="stop-color:#00A550"
         id="stop3181" />
      <stop
         offset="1"
         style="stop-color:#00914C"
         id="stop3183" />
    </linearGradient>
    <linearGradient
       id="path3355_1_"
       gradientUnits="userSpaceOnUse"
       x1="286.22781"
       y1="-823.62622"
       x2="433.2832"
       y2="-823.62622"
       gradientTransform="matrix(0.9112,-0.412,-0.412,-0.9112,-282.72801,486.18695)">
      <stop
         offset="0"
         style="stop-color:#006699"
         id="stop3171" />
      <stop
         offset="0.5"
         style="stop-color:#006699"
         id="stop3173" />
      <stop
         offset="1"
         style="stop-color:#006699"
         id="stop3175" />
    </linearGradient>
    <linearGradient
       id="path3270-5_2_"
       gradientUnits="userSpaceOnUse"
       x1="155.4836"
       y1="193.08569"
       x2="323.86841"
       y2="193.08569"
       gradientTransform="matrix(1.5869198,0.46197697,-0.46197697,1.5869198,-183.16378,496.51362)">
      <stop
         offset="0"
         style="stop-color:#64C08A"
         id="stop3162" />
      <stop
         offset="0.5"
         style="stop-color:#00A550"
         id="stop3164" />
      <stop
         offset="1"
         style="stop-color:#00914C"
         id="stop3166" />
    </linearGradient>
    <inkscape:path-effect
       effect="spiro"
       id="path-effect8939"
       is_visible="true" />
  </defs>
  <sodipodi:namedview
     id="base"
     pagecolor="#ffffff"
     bordercolor="#666666"
     borderopacity="1.0"
     inkscape:pageopacity="0.0"
     inkscape:pageshadow="2"
     inkscape:zoom="1.754102"
     inkscape:cx="325.61265"
     inkscape:cy="250.58455"
     inkscape:document-units="px"
     inkscape:current-layer="layer1"
     showgrid="false"
     inkscape:window-width="1855"
     inkscape:window-height="1056"
     inkscape:window-x="65"
     inkscape:window-y="24"
     inkscape:window-maximized="1" />
  <metadata
     id="metadata7">
    <rdf:RDF>
      <cc:Work
         rdf:about="">
        <dc:format>image/svg+xml</dc:format>
        <dc:type
           rdf:resource="http://purl.org/dc/dcmitype/StillImage" />
        <dc:title></dc:title>
      </cc:Work>
    </rdf:RDF>
  </metadata>
  <g
     inkscape:label="Layer 1"
     inkscape:groupmode="layer"
     id="layer1"
     transform="translate(0,-552.36218)">
    <path
       style="fill:#990100;fill-opacity:0.85100002"
       id="path3268-1"
       inkscape:connector-curvature="0"
       sodipodi:nodetypes="ccc"
       d="M 118.13863,735.27824 C 102.70435,612.48306 348.66995,553.45725 0.5003292,553.07407 -4.0135982,774.81022 20.19432,623.76503 118.13863,735.27824 z" />
    <path
       style="fill:url(#path3270-5_2_)"
       id="path3270-5"
       inkscape:connector-curvature="0"
       sodipodi:nodetypes="ccc"
       d="M 160.76494,879.53629 C 97.792295,837.65258 160.27532,701.47916 0.4189153,692.9407 1.9925673,871.6965 1.5389972,810.28105 160.76494,879.53629 z" />
    <path
       style="fill:#006599;fill-opacity:0.92159998"
       id="path3272-2"
       inkscape:connector-curvature="0"
       sodipodi:nodetypes="ccc"
       d="M 480.79223,916.98492 C 275.74497,1060.4879 221.68995,865.44623 0.08544493,849.02802 -0.96391317,1019.4638 255.76317,1171.723 480.79223,916.98492 z" />
    <g
       id="g9349"
       transform="matrix(2.0656565,0,0,2.1417994,-65.622919,349.72263)">
      <path
         inkscape:connector-curvature="0"
         id="path7660"
         d="m 212.46852,123.3579 c 0.65306,0.77179 -6.69014,-6.94442 -1.11479,-4.82607 4.03498,3.23429 3.71473,13.03352 1.34419,10.90796 0,0 -6.37429,-4.91498 -3.51714,-1.23729 3.48835,-2.57552 1.69221,3.86366 0.56131,5.72014 -1.24436,5.37809 7.63811,0.55401 7.41528,6.01797 0.41534,5.39749 -3.70964,9.66436 -1.30957,14.25909 3.21478,5.37862 8.74375,-3.9925 11.77127,1.47579 1.34985,3.76617 1.16936,10.17509 4.57438,12.52031 3.43873,2.27392 0.17462,5.75163 2.57777,9.16973 1.93374,1.6322 8.77695,-10.21714 10.62577,-11.69382 2.30186,4.10078 3.44837,25.99572 6.7307,25.03117 4.89924,-0.89794 -0.57171,-11.52684 4.38482,-11.7902 2.04445,-1.97532 -7.98956,-6.33833 -5.24445,-9.63412 2.27139,-3.06381 -4.61618,-9.91669 -2.01046,-11.70332 3.16904,-0.51643 11.09728,-3.75317 9.44004,1.04409 -0.79155,4.17739 17.12046,31.07971 13.978,34.64077 -1.15415,4.63369 -6.531,4.94828 -10.33674,4.10201 -3.19256,-2.34618 -7.42533,1.78861 -10.12742,3.62995 1.34613,2.26742 -5.05603,0.64755 -7.02888,1.60135 -6.7779,0.97743 -14.40896,-0.48281 -19.03628,-5.93155 -3.13617,-3.56321 -8.06861,-6.07802 -8.99602,-11.1038 -1.69413,-4.39387 -6.56496,-6.2276 -9.45883,-9.69655 -4.57016,-3.86385 -8.42989,-8.62628 -10.3321,-14.3726 -2.75472,-7.49987 -11.77768,-20.61506 -10.55997,-28.65218 -0.59331,-4.5139 8.56435,-3.37624 9.51467,-7.4546 -1.51813,-3.77216 -2.81597,-10.22753 2.47563,-11.99206 2.50811,-0.38194 8.16453,-0.0587 8.2773,1.97731 -2.67566,2.40406 4.61991,0.096 6.12605,-0.79349 3.77563,-2.83761 17.81035,17.76415 17.53841,21.34041 -2.15521,1.65792 -15.62226,-13.24367 -18.26294,-12.5564 z"
         style="fill:#006699;fill-opacity:1;fill-rule:nonzero;stroke:none"
         sodipodi:nodetypes="ccccccccccccccccccccccccccccccc" />
      <path
         inkscape:connector-curvature="0"
         id="path7690"
         d="m 186.74853,117.8766 c -1.9248,4.14394 -5.79613,12.25616 -11.02899,9.60932 2.90623,-1.62613 3.56454,-5.8283 3.6008,-7.78412 2.34103,6.3623 0.89886,13.28019 0.55301,19.8504 -1.32622,2.94063 -5.34342,10.82017 -1.8384,11.83428 3.09076,-3.0527 10.85317,4.89016 12.72577,7.06844 2.18952,5.37617 -9.46031,14.69158 -2.98858,18.90458 6.60572,3.08586 13.01848,-0.84787 17.73803,4.30774 2.92575,2.5411 -0.0424,8.93198 1.66088,13.11071 3.19029,5.34082 9.6529,-0.7989 14.75362,2.59205 4.29687,5.55897 10.54015,15.00846 15.89167,17.75537 2.81501,5.52404 7.7974,-5.15557 12.2917,-2.16324 3.087,0.22891 13.26031,-4.4081 16.96373,-6.66343 5.13778,0.78445 3.26203,12.66106 6.17854,15.56008 -2.02918,2.10223 -5.12178,12.60335 -7.78143,16.71192 -1.59647,1.41674 -10.22906,7.21465 -5.45474,6.00871 -6.12313,-1.54726 -8.15654,-3.50626 -14.08654,-4.09761 -5.94831,-0.20031 -8.22403,-8.10503 -14.6636,-5.27296 -9.62976,0.17821 -11.71439,2.14129 -19.08006,-2.90034 -5.55819,-4.10687 -12.78492,-16.29199 -18.40145,-20.25327 -14.37936,4.27245 -16.29,-8.86796 -21.02861,-14.43663 -4.27361,-5.81138 -8.35721,-4.31592 -12.13036,-10.41442 -1.72137,-3.16975 3.1568,-17.72597 2.1228,-21.16145 5.50301,-4.15271 -5.48142,-2.52856 -5.66831,-7.23597 -1.73069,-6.19869 -2.87247,-13.80151 -0.51094,-19.94284 1.84786,-4.05392 3.97667,-6.38032 8.14715,-3.29691 3.66445,-0.47843 -22.63679,-11.61737 -23.57608,-13.50314 -5.19556,-3.74464 7.12197,-11.40312 14.69089,-13.4272 3.21908,-1.53374 12.82889,1.31214 12.06066,-2.34002 6.64417,2.44461 12.76762,6.36402 18.33027,10.68593 l 0.47214,0.55025 0.0564,0.34309 5e-5,6.8e-4 z"
         style="fill:#339967;fill-opacity:1;fill-rule:nonzero;stroke:none"
         sodipodi:nodetypes="cccccccccccccccccccccccccccccccccc" />
      <path
         inkscape:connector-curvature="0"
         id="path7702"
         d="m 141.40531,133.09799 c -0.10313,2.82287 6.58918,2.17677 4.31457,4.5464 0.90006,2.0327 -3.30385,13.73082 -6.52172,7.87947 -1.37994,3.8994 14.64723,9.05931 9.77693,14.71233 -0.77335,3.00038 1.75054,12.95153 -2.92224,6.93812 1.85105,-6.43039 9.74816,10.24353 8.59279,8.72056 3.51324,5.20032 -8.67411,12.01121 -3.47716,16.54634 6.44935,1.71865 12.97287,6.06514 18.59547,9.33013 3.35952,4.68417 -6.64948,12.08908 2.83391,13.00158 4.42301,3.7246 13.46779,-1.37661 13.92872,4.89497 1.83791,3.56401 -1.06423,23.35674 -6.86148,22.5891 3.1021,-5.27003 1.91777,-19.89456 7.37849,-17.36847 1.90265,6.16096 5.2898,-3.41967 6.52415,2.99133 -2.83675,-1.69563 3.74558,-3.81619 6.66409,2.35997 -0.96021,5.02713 7.68267,1.15025 3.26443,3.11004 3.66086,1.05616 9.57596,9.38956 11.64107,11.2111 -2.62125,0.20645 -4.22947,4.12878 3.09156,6.98875 3.14956,0.31886 10.1461,3.71619 11.59353,1.97101 -2.23346,-2.04627 -3.18748,-9.56651 2.16266,-11.68812 4.21432,-7.59127 9.94421,11.39806 15.58795,13.42372 8.80207,3.9142 -5.72671,6.385 -6.58188,0.8498 -3.69278,0.27032 -11.83383,0.73414 -3.75211,2.53376 2.92747,2.12121 13.00154,5.2309 10.76472,7.94957 -5.88079,2.97548 -13.172,10.56296 -18.95278,6.61443 -5.98704,-3.78915 0.23539,-11.11579 4.0528,-8.2152 4.76942,-2.7581 6.27085,5.84166 1.11258,2.25352 -5.76635,-0.19211 -13.07696,4.4399 -17.86704,-0.63041 -1.99123,-4.14129 12.96393,10.2262 4.52381,11.99404 -3.557,2.35544 -9.52083,-6.87678 -9.62653,-12.51191 -2.41942,-0.8289 -10.17319,-0.11286 -12.1297,2.978 -4.05023,-1.24433 -10.15007,-9.34161 -10.04702,-11.68337 4.54528,-0.0701 -11.21122,-1.53366 -12.67222,-2.49202 -6.355,-1.16775 -8.48635,-3.53419 -11.07914,-9.46141 -1.30304,-1.63996 -6.12036,-10.30914 -1.9031,-7.9825 2.14847,4.55514 -8.76038,5.64047 -10.71068,3.71191 -7.20379,-4.42769 -16.57311,-12.92743 -16.99227,-20.97232 -0.22418,-5.92129 1.46651,-16.06535 -2.83495,-21.05918 -7.05442,-3.94378 -9.45937,-12.02357 -5.26749,-18.37837 -2.6554,-5.8457 -5.43634,-11.91601 -8.45235,-17.35479 4.61455,-3.38072 2.49439,-8.63108 3.17924,-12.20684 4.79421,-1.36949 3.51696,-16.33113 -0.6744,-6.95558 -1.41863,-2.32434 -0.50581,-10.74282 0.87422,-14.72576 6.33029,0.12761 12.79807,1.27856 18.70263,3.34156 l 0.1659,0.24474 1.37996,-9.04993 z"
         style="fill:#990100;fill-opacity:1;fill-rule:nonzero;stroke:none"
         sodipodi:nodetypes="cccccccccccccccccccccccccccccccccccccccccccccc" />
      <path
         inkscape:connector-curvature="0"
         id="path7706"
         d="m 112.94752,162.34961 c -2.14858,3.46389 1.69546,10.67688 -5.21928,7.93434 -7.42075,-0.64604 1.89415,-4.43938 3.96993,-0.67515 0.33158,4.43665 8.79355,12.59507 3.84646,15.23828 -3.22051,3.27474 -7.42954,4.01887 -5.04754,6.50875 1.12099,2.31232 4.36001,5.10204 1.64282,7.49066 -4.5664,2.10025 11.0814,4.38714 16.6366,7.13274 3.45454,2.94449 0.57276,11.51339 -2.19057,15.23971 -2.2973,-0.67483 2.31449,3.19013 1.7311,5.45467 3.11945,4.89133 7.31223,2.39457 10.99149,7.07876 1.20751,3.39046 -4.02085,11.05646 0.0295,11.06824 2.62816,6.61441 8.01375,-1.69371 11.88207,3.76775 4.46788,3.18085 6.93149,12.68915 7.93483,18.16036 5.65794,1.06959 7.54016,-7.50828 13.22131,-5.45914 4.81562,1.20798 16.46733,8.25766 16.40227,15.20237 -0.88826,1.94879 -3.49774,6.88799 -3.9267,1.73397 0.15851,-6.93832 8.26314,-3.26313 12.29649,-4.58404 1.42532,1.87482 3.1583,9.12637 0.71379,3.35688 -3.62461,-6.94118 8.3254,4.99597 -0.0552,3.89406 -5.28369,2.05065 -14.44926,2.77312 -16.80024,-3.27222 -0.0813,-2.20592 -1.87369,-4.55258 -0.97227,-0.75361 7.84012,4.04223 -7.11292,3.30278 -9.34175,0.44031 -5.04708,-3.08351 -12.40201,-1.01871 -16.36552,-5.85278 -3.68082,-4.56165 -10.97503,-5.42177 -12.13591,-11.61836 -4.97747,-2.97132 -11.05188,-3.01886 -16.66795,-3.88011 -6.82174,-2.12387 -5.75323,-10.02976 -11.13248,-13.3038 -5.36048,-2.46646 1.03488,-9.4781 -4.69522,-12.01771 -5.42439,-1.86978 -7.17613,-5.59353 -7.09606,-10.75266 -1.02338,-6.51747 -8.751368,-11.59512 -5.822708,-18.64129 3.292778,-2.81111 7.584248,-5.96641 2.73916,-9.46343 -3.99876,-3.47301 -2.98806,-8.38986 -1.31799,-12.65845 1.45259,-5.10268 7.911408,-6.38612 11.547458,-5.69406 -5.1678,-0.62375 -15.327568,-1.88199 -8.95854,-8.48643 1.77702,-5.86276 6.44962,-20.38641 11.05663,-18.02613 l 1.65591,9.31551 z"
         style="fill:#006699;fill-opacity:1;fill-rule:nonzero;stroke:none"
         sodipodi:nodetypes="cccccccccccccccccccccccccccccccccccc" />
      <path
         inkscape:connector-curvature="0"
         inkscape:original-d="m 250.28015,138.45069 c 7.89731,-42.072548 10.84196,27.10494 0,0 z"
         inkscape:path-effect="#path-effect8939"
         id="path8937"
         d="m 250.28015,138.45069 0,0"
         style="fill:none;stroke:#000000;stroke-width:1.65286934px;stroke-linecap:butt;stroke-linejoin:miter;stroke-opacity:1" />
    </g>
  </g>
</svg>
